HIERARCHY
ROOT Hips
{
    OFFSET 0.000000 0.000000 0.000000
    CHANNELS 6 Xposition Yposition Zposition Zrotation Xrotation Yrotation
        JOINT Chest
        {
            OFFSET -0.000000 31.966684 -0.000000
            CHANNELS 3 Zrotation Xrotation Yrotation
            JOINT Neck
            {
                OFFSET -0.000000 23.973995 0.000000
                CHANNELS 3 Zrotation Xrotation Yrotation
                JOINT Head
                {
                    OFFSET -0.000000 10.633333 0.000000
                    CHANNELS 3 Zrotation Xrotation Yrotation
                    End Site
                    {
                        OFFSET -0.000000 16.433334 0.000000
                    }
                }
            }
            JOINT LeftCollar
            {
                OFFSET -0.000000 23.973995 0.000000
                CHANNELS 3 Zrotation Xrotation Yrotation
                JOINT LeftShoulder
                {
                    OFFSET 19.333332 -0.000000 0.000000
                    CHANNELS 3 Zrotation Xrotation Yrotation
                    JOINT LeftElbow
                    {
                        OFFSET 20.067463 0.000000 0.000000
                        CHANNELS 3 Zrotation Xrotation Yrotation
                        JOINT LeftWrist
                        {
                            OFFSET 23.490957 0.000000 0.000000
                            CHANNELS 3 Zrotation Xrotation Yrotation
                            End Site
                            {
                                OFFSET 0.000000 -14.500000 0.000000
                            }
                        }
                    }
                }
            }
            JOINT RightCollar
            {
                OFFSET -0.000000 23.973995 0.000000
                CHANNELS 3 Zrotation Xrotation Yrotation
                JOINT RightShoulder
                {
                    OFFSET -19.333332 0.000000 0.000000
                    CHANNELS 3 Zrotation Xrotation Yrotation
                    JOINT RightElbow
                    {
                        OFFSET -20.067463 0.000000 0.000000
                        CHANNELS 3 Zrotation Xrotation Yrotation
                        JOINT RightWrist
                        {
                            OFFSET -23.490957 0.000000 0.000000
                            CHANNELS 3 Zrotation Xrotation Yrotation
                            End Site
                            {
                                OFFSET -0.000000 -14.500000 0.000000
                            }
                        }
                    }
                }
            }
        }
    JOINT LeftHip
    {
        OFFSET 11.599999 0.000000 0.000000
        CHANNELS 3 Zrotation Xrotation Yrotation
        JOINT LeftKnee
        {
            OFFSET -0.000000 -35.131119 0.000000
            CHANNELS 3 Zrotation Xrotation Yrotation
            JOINT LeftAnkle
            {
                OFFSET -0.000000 -37.839104 0.000000
                CHANNELS 3 Zrotation Xrotation Yrotation
                End Site
                {
                    OFFSET -0.000000 -4.833333 16.433334
                }
            }
        }
    }
    JOINT RightHip
    {
        OFFSET -11.599999 0.000000 0.000000
        CHANNELS 3 Zrotation Xrotation Yrotation
        JOINT RightKnee
        {
            OFFSET -0.000000 -35.131119 0.000000
            CHANNELS 3 Zrotation Xrotation Yrotation
            JOINT RightAnkle
            {
                OFFSET -0.000000 -37.839104 0.000000
                CHANNELS 3 Zrotation Xrotation Yrotation
                End Site
                {
                    OFFSET -0.000000 -4.833333 16.433334
                }
            }
        }
    }
}
MOTION
Frames:    8
Frame Time:    0.010000
-66.803406    84.055099    -77.185837    2.457964    -1.642627    -1.823125    -8.066674    4.227319    2.453238    6.065574    4.354280    12.784560    -17.901390    -10.813161    11.670229    -16.318537    0.127702    -0.651692    -44.643639    30.397568    -19.963688    -10.090965    0.895456    -9.731069    99.639305    4.801697    4.871085    14.245773    1.039582    8.462252    60.195766    17.438583    9.726336    4.037855    0.447085    13.414751    -94.952209    3.213673    43.532310    -5.796280    12.179405    2.898661    -1.794293    2.253762    5.201902    -1.119682    -17.046768    35.947388    -14.914925    0.618754    -2.683630    2.121885    8.218229    -17.659418    -22.543737    3.547062    13.111428    
-66.805183    84.049202    -77.218544    2.464529    -1.658665    -1.747117    -8.237022    4.291528    2.323910    7.186635    4.518856    12.501069    -17.980894    -12.041256    10.865262    -16.017426    0.162223    -1.269377    -44.941711    30.509314    -19.893213    -10.055806    0.849278    -9.751289    98.930611    4.901404    6.070624    14.525242    1.040648    8.255184    60.181580    16.846394    9.683052    4.489743    0.527631    13.787558    -95.469002    3.378747    43.886883    -5.813193    12.202464    2.804765    -1.749394    2.203285    5.220504    -1.235839    -17.169928    35.947029    -14.912780    0.598914    -2.719355    2.127087    8.290955    -17.701590    -22.339367    3.527458    12.918962    
-66.791679    84.019424    -77.248558    2.506582    -1.612715    -1.615790    -8.277069    4.295057    2.235432    7.093998    4.471397    12.502042    -17.915697    -11.917365    10.893773    -16.029425    0.182286    -1.352991    -44.922409    30.644653    -19.939955    -10.251966    0.929363    -10.567576    99.243202    5.804650    7.476686    14.548463    1.072265    8.167843    59.949741    17.696507    9.954867    4.557048    0.544239    13.936738    -95.751060    3.192711    43.636795    -5.837234    12.155234    2.539375    -1.744762    2.138228    5.309283    -0.499183    -16.598778    35.939789    -14.960341    0.522885    -2.822898    2.139428    8.377950    -17.730190    -22.694048    3.481621    13.130950    
-66.793396    84.014702    -77.281036    2.509573    -1.606425    -1.523631    -8.285351    4.334135    2.151955    7.066806    4.429493    12.492598    -17.884018    -11.833418    10.897229    -16.001429    0.181614    -1.393646    -44.950623    30.824406    -20.093456    -10.296039    0.977995    -10.920163    99.122345    6.101928    8.484470    14.576921    1.048086    8.169186    59.815262    17.978571    10.049241    4.645783    0.601832    14.237741    -96.054016    3.214157    43.541714    -5.828404    12.134693    2.431163    -1.734390    2.123497    5.314918    -0.364872    -16.510145    35.939789    -14.964066    0.495811    -2.881082    2.147125    8.441058    -17.773582    -22.720613    3.454623    13.143710    
-66.796104    84.011269    -77.320839    2.505422    -1.601888    -1.408983    -8.291370    4.383530    2.050119    7.058695    4.390817    12.476828    -17.865726    -11.743878    10.894903    -15.982396    0.181147    -1.422111    -44.918579    31.090708    -20.327623    -10.371826    1.027788    -11.292721    98.990776    6.355666    9.618347    14.619451    1.025917    8.138766    59.656349    18.365025    10.178894    4.761333    0.631430    14.498446    -96.455368    3.183878    43.446785    -5.805909    12.102985    2.324679    -1.727141    2.124771    5.303552    -0.246393    -16.441050    35.936253    -14.963346    0.469505    -2.948494    2.160203    8.513798    -17.824625    -22.744953    3.427641    13.151860    
-66.799286    84.008911    -77.366997    2.494498    -1.599205    -1.272147    -8.288615    4.443462    1.933923    7.028989    4.356818    12.463044    -17.832973    -11.663393    10.893871    -15.983016    0.200950    -1.413426    -44.801678    31.431929    -20.680187    -10.480947    1.078506    -11.679695    98.843895    6.532732    10.851269    14.664556    1.066949    8.072245    59.434563    18.874622    10.416105    4.893591    0.636983    14.713884    -96.934586    3.115894    43.310196    -5.768530    12.056897    2.229895    -1.725438    2.148294    5.268045    -0.149193    -16.398193    35.926785    -14.959766    0.443764    -3.021465    2.181418    8.597165    -17.881792    -22.762262    3.401993    13.148384    
-66.802643    84.007523    -77.418251    2.478682    -1.598568    -1.115132    -8.279554    4.512915    1.808972    6.991417    4.337201    12.447320    -17.795969    -11.602205    10.889074    -16.007029    0.181747    -1.374241    -44.605461    31.891180    -21.115463    -10.535544    1.125046    -12.157424    98.636864    6.647263    12.190822    14.737140    1.042562    7.950690    59.134026    19.645256    10.691730    4.898144    0.667152    15.160360    -97.406830    3.178965    42.934269    -5.716742    11.994282    2.156430    -1.731788    2.198930    5.201445    -0.074808    -16.384579    35.910191    -14.956184    0.418064    -3.094611    2.213217    8.691772    -17.945803    -22.768068    3.378725    13.128467    
-66.805992    84.007050    -77.473175    2.460876    -1.600352    -0.941204    -8.272276    4.588145    1.681355    6.984239    4.343933    12.420785    -17.782509    -11.564780    10.869708    -16.048624    0.217001    -1.326564    -44.316364    32.356640    -21.647797    -10.716262    1.199750    -12.582211    98.470367    6.607780    13.511399    14.834144    1.021358    7.764788    58.778713    20.580700    11.031861    4.897289    0.687432    15.552715    -97.937637    3.215631    42.474693    -5.652579    11.914496    2.111269    -1.748118    2.279687    5.098103    -0.020429    -16.399412    35.886909    -14.955971    0.391625    -3.161996    2.257295    8.798476    -18.018440    -22.759644    3.357805    13.088243    
